<svg xmlns="http://www.w3.org/2000/svg" viewBox="0 0 24 24" fill="none" stroke="currentColor" stroke-width="2" stroke-linecap="round" stroke-linejoin="round"><path d="M18 8.5a1.5 1.5 0 1 0-3 0 1.5 1.5 0 0 0 3 0zm-8.5 0a1.5 1.5 0 1 0-3 0 1.5 1.5 0 0 0 3 0z"></path><path d="M20.07 3.51A19.93 19.93 0 0 0 16.01 2a.1.1 0 0 0-.07.03c-.18.33-.39.76-.53 1.09a18.4 18.4 0 0 0-5.53 0C9.74 2.79 9.53 2.36 9.35 2.03A.1.1 0 0 0 9.28 2c-1.41.2-2.78.55-4.06 1.51-2.59 3.87-3.29 7.63-2.94 11.34a.12.12 0 0 0 .04.07 20.03 20.03 0 0 0 6.02 3.05c.03.01.07 0 .09-.02.64-.87 1.21-1.79 1.7-2.75a.11.11 0 0 0-.06-.15 13.13 13.13 0 0 1-1.88-.9.11.11 0 0 1-.01-.17c.13-.1.25-.2.37-.3a.1.1 0 0 1 .11-.01c5.57 2.54 11.59 2.54 17.09 0a.1.1 0 0 1 .11.01c.12.1.24.2.37.3.06.05.05.14-.01.17-.6.35-1.23.64-1.88.9a.11.11 0 0 0-.06.15c.5.96 1.07 1.88 1.7 2.75.02.03.06.03.09.02a19.97 19.97 0 0 0 6.02-3.05.12.12 0 0 0 .04-.07c.42-4.39-.71-8.11-3.01-11.34z"></path></svg>